<svg width="50" height="50" viewBox="0 0 50 50" fill="none" xmlns="http://www.w3.org/2000/svg">
<g opacity="0.7">
<path d="M45.2497 13.0824V15.5199C45.2497 17.5616 44.4372 19.3116 42.9997 20.3324C42.1038 20.9991 40.9997 21.3116 39.8538 21.3116C39.1455 21.3116 38.4372 21.2074 37.708 20.9574L26.4997 17.2283V37.4991C26.4997 42.9574 22.0622 47.3949 16.6038 47.3949C11.1455 47.3949 6.70801 42.9574 6.70801 37.4991C6.70801 32.0408 11.1455 27.6033 16.6038 27.6033C19.2288 27.6033 21.6038 28.6449 23.3747 30.3116V8.33244C23.3747 6.31161 24.208 4.56161 25.6455 3.51994C27.083 2.49911 28.9997 2.26994 30.9163 2.89494L40.1247 5.97827C42.958 6.91577 45.2497 10.1033 45.2497 13.0824Z" fill="#D9D9D9"/>
</g>
</svg>
