<svg width="50" height="50" viewBox="0 0 50 50" fill="none" xmlns="http://www.w3.org/2000/svg">
<g opacity="0.7">
<path fill-rule="evenodd" clip-rule="evenodd" d="M32.4363 7.42871C31.9446 7.12741 31.418 6.87787 30.8641 6.6869C29.5969 6.25 28.0646 6.25 25.0002 6.25C21.9357 6.25 20.4034 6.25 19.1362 6.6869C17.1023 7.38816 15.4365 8.87909 14.5149 10.8232C13.9408 12.0343 13.7716 13.5572 13.4332 16.603L12.8858 21.5293C12.6937 23.2579 12.5977 24.1222 12.3217 24.9398C12.0458 25.7573 11.5984 26.503 10.7035 27.9944L8.06755 32.3877C7.26179 33.7306 6.85892 34.4021 7.14614 34.9094C7.43337 35.4167 8.21643 35.4167 9.78253 35.4167H40.2178C41.7839 35.4167 42.5669 35.4167 42.8542 34.9094C43.1414 34.4021 42.7385 33.7306 41.9328 32.3877L39.2968 27.9944C38.4019 26.503 37.9545 25.7573 37.6786 24.9398C37.4026 24.1222 37.3066 23.2579 37.1145 21.5293L36.9049 19.6423C33.2253 19.3397 30.3335 16.2576 30.3335 12.5C30.3335 10.5191 31.1372 8.72591 32.4363 7.42871ZM34.6585 9.45266C34.9769 9.87752 35.2545 10.3361 35.4854 10.8232C36.0569 12.0287 36.2272 13.5431 36.5625 16.5607C34.7128 16.1353 33.3335 14.4788 33.3335 12.5C33.3335 11.2971 33.8432 10.2132 34.6585 9.45266Z" fill="#D9D9D9"/>
<path d="M18.75 35.416C18.75 36.2368 18.9117 37.0495 19.2258 37.8078C19.5398 38.5661 20.0002 39.2551 20.5806 39.8354C21.1609 40.4158 21.8499 40.8762 22.6082 41.1903C23.3665 41.5044 24.1792 41.666 25 41.666C25.8208 41.666 26.6335 41.5044 27.3918 41.1903C28.1501 40.8762 28.8391 40.4158 29.4194 39.8354C29.9998 39.2551 30.4602 38.5661 30.7742 37.8078C31.0883 37.0495 31.25 36.2368 31.25 35.416L25 35.416H18.75Z" fill="#D9D9D9"/>
<circle cx="37.4997" cy="12.5007" r="4.66667" fill="#D9D9D9" stroke="#D9D9D9"/>
</g>
</svg>
